<?xml version="1.0" standalone="no"?>
<!DOCTYPE svg PUBLIC "-//W3C//DTD SVG 20010904//EN"
 "http://www.w3.org/TR/2001/REC-SVG-20010904/DTD/svg10.dtd">
<svg version="1.0" xmlns="http://www.w3.org/2000/svg"
 width="61.000000pt" height="124.000000pt" viewBox="0 0 61.000000 124.000000"
 preserveAspectRatio="xMidYMid meet">
<metadata>
Created by potrace 1.10, written by Peter Selinger 2001-2011
</metadata>
<g transform="translate(0.000000,124.000000) scale(0.100000,-0.100000)"
fill="#000000" stroke="none">
<path d="M193 1226 c-60 -19 -99 -51 -130 -104 -28 -47 -28 -49 -25 -204 2
-149 1 -158 -18 -168 -26 -14 -27 -50 -1 -50 27 0 30 -47 20 -270 -9 -182 -5
-244 23 -345 6 -22 16 -46 23 -53 28 -31 331 -40 414 -11 25 9 33 20 48 67 16
50 18 91 15 335 l-2 277 25 0 c34 0 34 36 0 52 -21 9 -25 18 -25 56 0 25 5 73
11 107 9 45 9 78 1 125 -23 128 -102 190 -251 196 -55 3 -101 -1 -128 -10z
m292 -56 c10 -16 -12 -12 -29 6 -9 8 -16 18 -16 20 0 7 38 -15 45 -26z m-335
5 c-7 -8 -17 -15 -22 -15 -6 0 -5 7 2 15 7 8 17 15 22 15 6 0 5 -7 -2 -15z
m275 -274 c60 -27 69 -42 61 -107 -11 -98 -5 -94 -180 -94 -123 0 -156 3 -166
15 -6 8 -14 41 -17 75 -6 68 6 91 62 116 46 20 191 18 240 -5z m-310 -277 c8
-44 14 -99 15 -123 0 -35 -3 -42 -16 -37 -9 3 -18 6 -20 6 -2 0 -4 55 -4 122
0 67 3 119 6 116 3 -3 12 -41 19 -84z m401 -31 c-1 -110 -6 -132 -30 -133 -11
0 -1 162 14 213 6 20 12 37 14 37 1 0 2 -53 2 -117z m-386 -199 c0 -24 -5 -44
-10 -44 -13 0 -30 43 -30 75 0 18 4 22 20 18 16 -4 20 -14 20 -49z m385 19
c-4 -21 -12 -47 -18 -58 -11 -17 -12 -14 -15 29 -2 32 1 52 10 57 25 16 30 9
23 -28z m-77 -122 c23 -14 4 -111 -28 -143 -47 -47 -172 -46 -219 1 -19 19
-38 122 -26 141 7 12 254 14 273 1z"/>
</g>
</svg>
